<mxfile host="app.diagrams.net" modified="2023-12-06T12:36:17.552Z" agent="Mozilla/5.0 (Windows NT 10.0; Win64; x64) AppleWebKit/537.36 (KHTML, like Gecko) Chrome/119.0.0.0 Safari/537.36" etag="jEGk5QBSGki_LKzjmsuX" version="22.1.5" type="github">
  <diagram name="PÃ¡gina-1" id="MyBwDCRX1IkjfBfhLcGw">
    <mxGraphModel dx="1647" dy="886" grid="1" gridSize="10" guides="1" tooltips="1" connect="1" arrows="1" fold="1" page="1" pageScale="1" pageWidth="827" pageHeight="1169" math="0" shadow="0">
      <root>
        <mxCell id="0" />
        <mxCell id="1" parent="0" />
        <mxCell id="ILg_1sbRKhSdIZVblQ32-1" value="" style="strokeWidth=1;shadow=0;dashed=0;align=right;html=1;shape=mxgraph.mockup.containers.browserWindow;rSize=0;mainText=,;recursiveResize=0;rounded=0;labelBackgroundColor=none;fontFamily=Verdana;fontSize=12;strokeColor=#666666;" vertex="1" parent="1">
          <mxGeometry x="310" y="670" width="1100" height="860" as="geometry" />
        </mxCell>
        <mxCell id="ILg_1sbRKhSdIZVblQ32-2" value="Workshops" style="strokeWidth=1;shadow=0;dashed=0;align=center;html=1;shape=mxgraph.mockup.containers.anchor;fontSize=17;fontColor=#666666;align=left;" vertex="1" parent="ILg_1sbRKhSdIZVblQ32-1">
          <mxGeometry x="60" y="12" width="110" height="28" as="geometry" />
        </mxCell>
        <mxCell id="ILg_1sbRKhSdIZVblQ32-3" value="https://universe.rollingcodeschool.com/workshops" style="strokeWidth=1;shadow=0;dashed=0;align=center;html=1;shape=mxgraph.mockup.containers.anchor;rSize=0;fontSize=17;fontColor=#666666;align=left;" vertex="1" parent="ILg_1sbRKhSdIZVblQ32-1">
          <mxGeometry x="130" y="60" width="500" height="30" as="geometry" />
        </mxCell>
        <mxCell id="ILg_1sbRKhSdIZVblQ32-4" value="" style="verticalLabelPosition=bottom;shadow=0;dashed=0;align=center;html=1;verticalAlign=top;strokeWidth=1;shape=mxgraph.mockup.markup.line;strokeColor=#999999;rounded=0;labelBackgroundColor=none;fillColor=#ffffff;fontFamily=Verdana;fontSize=12;fontColor=#000000;" vertex="1" parent="ILg_1sbRKhSdIZVblQ32-1">
          <mxGeometry y="750" width="1100" height="20" as="geometry" />
        </mxCell>
        <mxCell id="ILg_1sbRKhSdIZVblQ32-5" value="" style="verticalLabelPosition=bottom;shadow=0;dashed=0;align=center;html=1;verticalAlign=top;strokeWidth=1;shape=mxgraph.mockup.markup.line;strokeColor=#999999;rounded=0;labelBackgroundColor=none;fillColor=#ffffff;fontFamily=Verdana;fontSize=12;fontColor=#000000;" vertex="1" parent="ILg_1sbRKhSdIZVblQ32-1">
          <mxGeometry y="150" width="1090" height="20" as="geometry" />
        </mxCell>
        <mxCell id="ILg_1sbRKhSdIZVblQ32-6" value="Navbar" style="text;html=1;strokeColor=none;fillColor=none;align=center;verticalAlign=middle;whiteSpace=wrap;rounded=0;fontSize=37;" vertex="1" parent="ILg_1sbRKhSdIZVblQ32-1">
          <mxGeometry x="475" y="110" width="150" height="50" as="geometry" />
        </mxCell>
        <mxCell id="ILg_1sbRKhSdIZVblQ32-7" value="Footer" style="text;html=1;strokeColor=none;fillColor=none;align=center;verticalAlign=middle;whiteSpace=wrap;rounded=0;fontSize=37;" vertex="1" parent="ILg_1sbRKhSdIZVblQ32-1">
          <mxGeometry x="465" y="760" width="170" height="100" as="geometry" />
        </mxCell>
        <mxCell id="ILg_1sbRKhSdIZVblQ32-8" value="" style="group;fillColor=#f5f5f5;fontColor=#333333;strokeColor=#666666;" vertex="1" connectable="0" parent="ILg_1sbRKhSdIZVblQ32-1">
          <mxGeometry x="60" y="210" width="200" height="235" as="geometry" />
        </mxCell>
        <mxCell id="ILg_1sbRKhSdIZVblQ32-9" value="" style="rounded=0;whiteSpace=wrap;html=1;strokeColor=#666666;" vertex="1" parent="ILg_1sbRKhSdIZVblQ32-8">
          <mxGeometry width="200" height="235" as="geometry" />
        </mxCell>
        <mxCell id="ILg_1sbRKhSdIZVblQ32-10" value="" style="verticalLabelPosition=bottom;shadow=0;dashed=0;align=center;html=1;verticalAlign=top;strokeWidth=1;shape=mxgraph.mockup.graphics.simpleIcon;strokeColor=#999999;fillColor=#ffffff;rounded=0;labelBackgroundColor=none;fontFamily=Verdana;fontSize=12;fontColor=#000000;" vertex="1" parent="ILg_1sbRKhSdIZVblQ32-8">
          <mxGeometry y="35" width="200" height="200" as="geometry" />
        </mxCell>
        <mxCell id="ILg_1sbRKhSdIZVblQ32-11" value="Workshop title" style="text;html=1;strokeColor=none;fillColor=none;align=center;verticalAlign=middle;whiteSpace=wrap;rounded=0;fontSize=14;" vertex="1" parent="ILg_1sbRKhSdIZVblQ32-8">
          <mxGeometry x="45" width="110" height="35" as="geometry" />
        </mxCell>
        <mxCell id="ILg_1sbRKhSdIZVblQ32-12" value="" style="group;fillColor=#f5f5f5;fontColor=#333333;strokeColor=#666666;" vertex="1" connectable="0" parent="ILg_1sbRKhSdIZVblQ32-1">
          <mxGeometry x="320" y="210" width="200" height="235" as="geometry" />
        </mxCell>
        <mxCell id="ILg_1sbRKhSdIZVblQ32-13" value="" style="rounded=0;whiteSpace=wrap;html=1;strokeColor=#666666;" vertex="1" parent="ILg_1sbRKhSdIZVblQ32-12">
          <mxGeometry width="200" height="235" as="geometry" />
        </mxCell>
        <mxCell id="ILg_1sbRKhSdIZVblQ32-14" value="" style="verticalLabelPosition=bottom;shadow=0;dashed=0;align=center;html=1;verticalAlign=top;strokeWidth=1;shape=mxgraph.mockup.graphics.simpleIcon;strokeColor=#999999;fillColor=#ffffff;rounded=0;labelBackgroundColor=none;fontFamily=Verdana;fontSize=12;fontColor=#000000;" vertex="1" parent="ILg_1sbRKhSdIZVblQ32-12">
          <mxGeometry y="35" width="200" height="200" as="geometry" />
        </mxCell>
        <mxCell id="ILg_1sbRKhSdIZVblQ32-15" value="Workshop title" style="text;html=1;strokeColor=none;fillColor=none;align=center;verticalAlign=middle;whiteSpace=wrap;rounded=0;fontSize=14;" vertex="1" parent="ILg_1sbRKhSdIZVblQ32-12">
          <mxGeometry x="45" width="110" height="35" as="geometry" />
        </mxCell>
        <mxCell id="ILg_1sbRKhSdIZVblQ32-16" value="" style="group;fillColor=#f5f5f5;fontColor=#333333;strokeColor=#666666;" vertex="1" connectable="0" parent="ILg_1sbRKhSdIZVblQ32-1">
          <mxGeometry x="580" y="210" width="200" height="235" as="geometry" />
        </mxCell>
        <mxCell id="ILg_1sbRKhSdIZVblQ32-17" value="" style="rounded=0;whiteSpace=wrap;html=1;strokeColor=#666666;" vertex="1" parent="ILg_1sbRKhSdIZVblQ32-16">
          <mxGeometry width="200" height="235" as="geometry" />
        </mxCell>
        <mxCell id="ILg_1sbRKhSdIZVblQ32-18" value="" style="verticalLabelPosition=bottom;shadow=0;dashed=0;align=center;html=1;verticalAlign=top;strokeWidth=1;shape=mxgraph.mockup.graphics.simpleIcon;strokeColor=#999999;fillColor=#ffffff;rounded=0;labelBackgroundColor=none;fontFamily=Verdana;fontSize=12;fontColor=#000000;" vertex="1" parent="ILg_1sbRKhSdIZVblQ32-16">
          <mxGeometry y="35" width="200" height="200" as="geometry" />
        </mxCell>
        <mxCell id="ILg_1sbRKhSdIZVblQ32-19" value="Workshop title" style="text;html=1;strokeColor=none;fillColor=none;align=center;verticalAlign=middle;whiteSpace=wrap;rounded=0;fontSize=14;" vertex="1" parent="ILg_1sbRKhSdIZVblQ32-16">
          <mxGeometry x="45" width="110" height="35" as="geometry" />
        </mxCell>
        <mxCell id="ILg_1sbRKhSdIZVblQ32-20" value="" style="group;fillColor=#f5f5f5;fontColor=#333333;strokeColor=#666666;" vertex="1" connectable="0" parent="ILg_1sbRKhSdIZVblQ32-1">
          <mxGeometry x="840" y="210" width="200" height="235" as="geometry" />
        </mxCell>
        <mxCell id="ILg_1sbRKhSdIZVblQ32-21" value="" style="rounded=0;whiteSpace=wrap;html=1;strokeColor=#666666;" vertex="1" parent="ILg_1sbRKhSdIZVblQ32-20">
          <mxGeometry width="200" height="235" as="geometry" />
        </mxCell>
        <mxCell id="ILg_1sbRKhSdIZVblQ32-23" value="Workshop title" style="text;html=1;strokeColor=none;fillColor=none;align=center;verticalAlign=middle;whiteSpace=wrap;rounded=0;fontSize=14;" vertex="1" parent="ILg_1sbRKhSdIZVblQ32-20">
          <mxGeometry x="45" width="110" height="35" as="geometry" />
        </mxCell>
        <mxCell id="ILg_1sbRKhSdIZVblQ32-22" value="" style="verticalLabelPosition=bottom;shadow=0;dashed=0;align=center;html=1;verticalAlign=top;strokeWidth=1;shape=mxgraph.mockup.graphics.simpleIcon;strokeColor=#999999;fillColor=#ffffff;rounded=0;labelBackgroundColor=none;fontFamily=Verdana;fontSize=12;fontColor=#000000;" vertex="1" parent="ILg_1sbRKhSdIZVblQ32-20">
          <mxGeometry y="35" width="200" height="200" as="geometry" />
        </mxCell>
        <mxCell id="ILg_1sbRKhSdIZVblQ32-40" value="" style="group;fillColor=#f5f5f5;fontColor=#333333;strokeColor=#666666;" vertex="1" connectable="0" parent="ILg_1sbRKhSdIZVblQ32-1">
          <mxGeometry x="60" y="480" width="200" height="235" as="geometry" />
        </mxCell>
        <mxCell id="ILg_1sbRKhSdIZVblQ32-41" value="" style="rounded=0;whiteSpace=wrap;html=1;strokeColor=#666666;" vertex="1" parent="ILg_1sbRKhSdIZVblQ32-40">
          <mxGeometry width="200" height="235" as="geometry" />
        </mxCell>
        <mxCell id="ILg_1sbRKhSdIZVblQ32-42" value="" style="verticalLabelPosition=bottom;shadow=0;dashed=0;align=center;html=1;verticalAlign=top;strokeWidth=1;shape=mxgraph.mockup.graphics.simpleIcon;strokeColor=#999999;fillColor=#ffffff;rounded=0;labelBackgroundColor=none;fontFamily=Verdana;fontSize=12;fontColor=#000000;" vertex="1" parent="ILg_1sbRKhSdIZVblQ32-40">
          <mxGeometry y="35" width="200" height="200" as="geometry" />
        </mxCell>
        <mxCell id="ILg_1sbRKhSdIZVblQ32-43" value="Workshop title" style="text;html=1;strokeColor=none;fillColor=none;align=center;verticalAlign=middle;whiteSpace=wrap;rounded=0;fontSize=14;" vertex="1" parent="ILg_1sbRKhSdIZVblQ32-40">
          <mxGeometry x="45" width="110" height="35" as="geometry" />
        </mxCell>
        <mxCell id="ILg_1sbRKhSdIZVblQ32-44" value="" style="group;fillColor=#f5f5f5;fontColor=#333333;strokeColor=#666666;" vertex="1" connectable="0" parent="ILg_1sbRKhSdIZVblQ32-1">
          <mxGeometry x="320" y="480" width="200" height="235" as="geometry" />
        </mxCell>
        <mxCell id="ILg_1sbRKhSdIZVblQ32-45" value="" style="rounded=0;whiteSpace=wrap;html=1;strokeColor=#666666;" vertex="1" parent="ILg_1sbRKhSdIZVblQ32-44">
          <mxGeometry width="200" height="235" as="geometry" />
        </mxCell>
        <mxCell id="ILg_1sbRKhSdIZVblQ32-46" value="" style="verticalLabelPosition=bottom;shadow=0;dashed=0;align=center;html=1;verticalAlign=top;strokeWidth=1;shape=mxgraph.mockup.graphics.simpleIcon;strokeColor=#999999;fillColor=#ffffff;rounded=0;labelBackgroundColor=none;fontFamily=Verdana;fontSize=12;fontColor=#000000;" vertex="1" parent="ILg_1sbRKhSdIZVblQ32-44">
          <mxGeometry y="35" width="200" height="200" as="geometry" />
        </mxCell>
        <mxCell id="ILg_1sbRKhSdIZVblQ32-47" value="Workshop title" style="text;html=1;strokeColor=none;fillColor=none;align=center;verticalAlign=middle;whiteSpace=wrap;rounded=0;fontSize=14;" vertex="1" parent="ILg_1sbRKhSdIZVblQ32-44">
          <mxGeometry x="45" width="110" height="35" as="geometry" />
        </mxCell>
        <mxCell id="ILg_1sbRKhSdIZVblQ32-48" value="" style="group;fillColor=#f5f5f5;fontColor=#333333;strokeColor=#666666;" vertex="1" connectable="0" parent="ILg_1sbRKhSdIZVblQ32-1">
          <mxGeometry x="580" y="480" width="200" height="235" as="geometry" />
        </mxCell>
        <mxCell id="ILg_1sbRKhSdIZVblQ32-49" value="" style="rounded=0;whiteSpace=wrap;html=1;strokeColor=#666666;" vertex="1" parent="ILg_1sbRKhSdIZVblQ32-48">
          <mxGeometry width="200" height="235" as="geometry" />
        </mxCell>
        <mxCell id="ILg_1sbRKhSdIZVblQ32-50" value="" style="verticalLabelPosition=bottom;shadow=0;dashed=0;align=center;html=1;verticalAlign=top;strokeWidth=1;shape=mxgraph.mockup.graphics.simpleIcon;strokeColor=#999999;fillColor=#ffffff;rounded=0;labelBackgroundColor=none;fontFamily=Verdana;fontSize=12;fontColor=#000000;" vertex="1" parent="ILg_1sbRKhSdIZVblQ32-48">
          <mxGeometry y="35" width="200" height="200" as="geometry" />
        </mxCell>
        <mxCell id="ILg_1sbRKhSdIZVblQ32-51" value="Workshop title" style="text;html=1;strokeColor=none;fillColor=none;align=center;verticalAlign=middle;whiteSpace=wrap;rounded=0;fontSize=14;" vertex="1" parent="ILg_1sbRKhSdIZVblQ32-48">
          <mxGeometry x="45" width="110" height="35" as="geometry" />
        </mxCell>
        <mxCell id="ILg_1sbRKhSdIZVblQ32-52" value="" style="group;fillColor=#f5f5f5;fontColor=#333333;strokeColor=#666666;" vertex="1" connectable="0" parent="ILg_1sbRKhSdIZVblQ32-1">
          <mxGeometry x="840" y="480" width="200" height="235" as="geometry" />
        </mxCell>
        <mxCell id="ILg_1sbRKhSdIZVblQ32-53" value="" style="rounded=0;whiteSpace=wrap;html=1;strokeColor=#666666;" vertex="1" parent="ILg_1sbRKhSdIZVblQ32-52">
          <mxGeometry width="200" height="235" as="geometry" />
        </mxCell>
        <mxCell id="ILg_1sbRKhSdIZVblQ32-54" value="" style="verticalLabelPosition=bottom;shadow=0;dashed=0;align=center;html=1;verticalAlign=top;strokeWidth=1;shape=mxgraph.mockup.graphics.simpleIcon;strokeColor=#999999;fillColor=#ffffff;rounded=0;labelBackgroundColor=none;fontFamily=Verdana;fontSize=12;fontColor=#000000;" vertex="1" parent="ILg_1sbRKhSdIZVblQ32-52">
          <mxGeometry y="35" width="200" height="200" as="geometry" />
        </mxCell>
        <mxCell id="ILg_1sbRKhSdIZVblQ32-55" value="Workshop title" style="text;html=1;strokeColor=none;fillColor=none;align=center;verticalAlign=middle;whiteSpace=wrap;rounded=0;fontSize=14;" vertex="1" parent="ILg_1sbRKhSdIZVblQ32-52">
          <mxGeometry x="45" width="110" height="35" as="geometry" />
        </mxCell>
      </root>
    </mxGraphModel>
  </diagram>
</mxfile>
